<?xml version="1.0" encoding="utf-8" ?>
<!-- Generator: Assembly 1.0 - http://assemblyapp.co -->
<svg version="1.1" xmlns="http://www.w3.org/2000/svg" xmlns:xlink="http://www.w3.org/1999/xlink" width="300" height="300" viewBox="0 0 300 300">
	<g id="widget" transform="matrix(1,0,0,1,150,150)">
		<path d="M-116.315,-113.363 L-125.022,-113.363 C-125.674,-115.763 -127.834,-117.512 -130.405,-117.512 C-133.49,-117.512 -135.959,-115.009 -135.959,-111.958 C-135.959,-108.907 -133.49,-106.404 -130.405,-106.404 C-127.834,-106.404 -125.674,-108.152 -125.022,-110.552 L-116.28,-110.552 C-115.595,-105.033 -110.932,-100.816 -105.241,-100.816 L-105.241,-123.134 C-110.932,-123.1 -115.595,-118.849 -116.315,-113.363 Z M-131.913,-111.923 C-131.913,-112.746 -131.228,-113.432 -130.405,-113.432 C-129.582,-113.432 -128.896,-112.746 -128.896,-111.923 C-128.896,-111.101 -129.582,-110.415 -130.405,-110.415 C-131.228,-110.415 -131.913,-111.101 -131.913,-111.923 Z" fill="#d3d3d3" fill-opacity="1" stroke-width="0.266075" stroke="#000000" stroke-linecap="round" stroke-linejoin="round" />
		<path d="M116.315,-110.705 L125.022,-110.705 C125.674,-108.305 127.834,-106.557 130.405,-106.557 C133.49,-106.557 135.959,-109.059 135.959,-112.11 C135.959,-115.161 133.49,-117.664 130.405,-117.664 C127.834,-117.664 125.674,-115.916 125.022,-113.516 L116.28,-113.516 C115.595,-119.035 110.932,-123.252 105.241,-123.252 L105.241,-100.934 C110.932,-100.968 115.595,-105.22 116.315,-110.705 Z M131.913,-112.145 C131.913,-111.322 131.228,-110.636 130.405,-110.636 C129.582,-110.636 128.896,-111.322 128.896,-112.145 C128.896,-112.967 129.582,-113.653 130.405,-113.653 C131.228,-113.653 131.913,-112.967 131.913,-112.145 Z" fill="#d3d3d3" fill-opacity="1" stroke-width="0.266075" stroke="#000000" stroke-linecap="round" stroke-linejoin="round" />
		<path d="M-95.8524,-96.6018 L95.8524,-96.6018 L95.8524,95.1031 L-95.8524,95.1031 Z" fill="#955c3c" fill-opacity="1" stroke-width="0.266075" stroke="#000000" stroke-linecap="square" stroke-linejoin="miter" />
		<path d="M88.6855,87.9361 L-88.6855,87.9361 L-88.6855,-89.4348 L88.6855,-89.4348 L88.6855,87.9361 Z" fill="#c5e0dc" fill-opacity="1" stroke-width="0.266075" stroke="#000000" stroke-linecap="square" stroke-linejoin="miter" />
		<path d="M-105.005,-100.52 L105.241,-100.52 L105.241,109.726 L-105.005,109.726 Z" fill="#ffffff" fill-opacity="1" stroke-width="0.199557" stroke="#000000" stroke-linecap="square" stroke-linejoin="miter" />
		<path d="M-105.005,109.726 L-105.005,88.6528 L105.241,88.6528 L105.241,109.726 L-105.005,109.726 Z" fill="#d3d3d3" fill-opacity="1" stroke-width="0.221729" stroke="#000000" stroke-linecap="square" stroke-linejoin="miter" />
		<path d="M-105.123,-100.698 L-105.123,-123.016 L105.123,-123.016 L105.123,-100.698 L-105.123,-100.698 Z" fill="#d3d3d3" fill-opacity="1" stroke-width="0.266075" stroke="#000000" stroke-linecap="square" stroke-linejoin="miter" />
	</g>
</svg>