<svg id="Layer_1" data-name="Layer 1" xmlns="http://www.w3.org/2000/svg" xmlns:xlink="http://www.w3.org/1999/xlink" viewBox="0 0 653 322"><defs><style>.cls-1{fill:#a3dce2;opacity:0.3;}.cls-2,.cls-3,.cls-4{opacity:0.4;}.cls-2{fill:url(#linear-gradient);}.cls-3{fill:url(#linear-gradient-2);}.cls-4{fill:url(#linear-gradient-3);}.cls-12,.cls-22,.cls-33,.cls-5,.cls-7{fill:#fff;}.cls-6{fill:#ff4304;}.cls-33,.cls-7{opacity:0.2;}.cls-8{fill:#ff834d;}.cls-9{fill:#ff6416;}.cls-10{fill:#ff430d;}.cls-11{fill:gray;}.cls-12{opacity:0.1;}.cls-13,.cls-30{fill:#cc7d00;}.cls-14,.cls-19{fill:none;stroke:#00a99d;}.cls-14,.cls-19,.cls-21,.cls-22,.cls-26,.cls-29,.cls-33{stroke-linecap:round;stroke-linejoin:round;}.cls-14{stroke-width:0.39px;}.cls-14,.cls-15,.cls-19,.cls-21,.cls-22,.cls-33{fill-rule:evenodd;}.cls-15{fill:#00a99d;}.cls-16{fill:#93c;}.cls-17{fill:#f7931e;}.cls-18{fill:#fc0;}.cls-19{stroke-width:0.58px;}.cls-20{fill:#f33;}.cls-21{fill:#93278f;stroke:#93278f;}.cls-21,.cls-22,.cls-33{stroke-width:2px;}.cls-22,.cls-33{stroke:#fff;}.cls-23{opacity:0.5;fill:url(#linear-gradient-4);}.cls-24{fill:#848484;}.cls-25{fill:#fbb03b;}.cls-26,.cls-27{fill:#6b6b6b;}.cls-26{stroke:#6b6b6b;stroke-width:2.19px;}.cls-28{fill:#ff7bac;}.cls-29{fill:#669096;stroke:#669096;stroke-width:4.22px;}.cls-30{stroke:#cc7d00;stroke-miterlimit:10;}.cls-31{fill:#7a7a7a;}.cls-32{fill:#fc3;}</style><linearGradient id="linear-gradient" x1="268.5" y1="261" x2="268.5" y2="278" gradientUnits="userSpaceOnUse"><stop offset="0" stop-color="#00d9e9"/><stop offset="0.15" stop-color="#23dfed" stop-opacity="0.83"/><stop offset="0.57" stop-color="#81eef6" stop-opacity="0.39"/><stop offset="0.86" stop-color="#bdf8fd" stop-opacity="0.11"/><stop offset="1" stop-color="#d4fcff" stop-opacity="0"/></linearGradient><linearGradient id="linear-gradient-2" x1="507" x2="507" xlink:href="#linear-gradient"/><linearGradient id="linear-gradient-3" x1="93" y1="246.23" x2="93" xlink:href="#linear-gradient"/><linearGradient id="linear-gradient-4" x1="283.51" y1="129.1" x2="283.51" y2="165.83" gradientUnits="userSpaceOnUse"><stop offset="0" stop-color="#fc3"/><stop offset="0.12" stop-color="#fc3" stop-opacity="0.87"/><stop offset="0.56" stop-color="#fc3" stop-opacity="0.41"/><stop offset="0.86" stop-color="#fc3" stop-opacity="0.11"/><stop offset="1" stop-color="#fc3" stop-opacity="0"/></linearGradient></defs><title>bedroom</title><rect class="cls-1" width="653" height="322"/><rect class="cls-2" x="169" y="261" width="199" height="17"/><rect class="cls-3" x="420" y="261" width="174" height="17"/><polygon class="cls-4" points="64.4 246.23 57.96 261 53 261 53 278 133 278 133 261 128.8 261 124.77 246.46 64.4 246.23"/><rect class="cls-5" x="53" y="206" width="5" height="55"/><rect class="cls-5" x="129" y="206" width="4" height="55"/><rect class="cls-5" x="120" y="191" width="5" height="56"/><rect class="cls-5" x="65" y="191" width="5" height="56"/><path class="cls-6" d="M138.94,203h-10.3c.6,0,1.36-1.9,1.36-3.07v-42.2c0-3.21-3-5.73-6.23-5.73H68.33c-3.21,0-6.33,2.51-6.33,5.73v42.2c0,1.17.86,3.07,1.45,3.07H52.27c-1.66,0-2.27,1.44-2.27,3.1v.17c0,1.66.61,2.72,2.27,2.72h86.67a2.83,2.83,0,0,0,3.06-2.72v-.17A3.14,3.14,0,0,0,138.94,203Zm-25.37-37a5,5,0,1,1-5,5A5,5,0,0,1,113.57,166Zm0,16.63a5,5,0,1,1-5,5A5,5,0,0,1,113.57,182.68ZM96.11,166a5,5,0,1,1-5,5A5,5,0,0,1,96.11,166Zm0,16.63a5,5,0,1,1-5,5A5,5,0,0,1,96.11,182.68ZM77.82,166a5,5,0,1,1-5,5A5,5,0,0,1,77.82,166Zm0,16.63a5,5,0,1,1-5,5A5,5,0,0,1,77.82,182.68Z" transform="translate(-2 -3)"/><path class="cls-7" d="M96,209h42.94a2.83,2.83,0,0,0,3.06-2.72v-.17a3.14,3.14,0,0,0-3.06-3.1h-10.3c.6,0,1.36-1.9,1.36-3.07v-42.2c0-3.21-3-5.73-6.23-5.73H96" transform="translate(-2 -3)"/><path class="cls-5" d="M167.83,168.44v12H170V264h12.88V180.39H294.53V264h75.16V180.39h2.14v-12ZM361.1,257.63h-58V182.78h58Z" transform="translate(-2 -3)"/><polygon class="cls-8" points="335.48 181.37 335.48 185.35 324.74 185.35 324.74 181.37 303.26 181.37 303.26 198.89 356.95 198.89 356.95 181.37 335.48 181.37"/><polygon class="cls-9" points="335.48 200.48 335.48 204.46 324.74 204.46 324.74 200.48 303.26 200.48 303.26 218 356.95 218 356.95 200.48 335.48 200.48"/><polygon class="cls-10" points="335.48 219.6 335.48 223.57 324.74 223.57 324.74 219.6 303.26 219.6 303.26 253.03 356.95 253.03 356.95 219.6 335.48 219.6"/><rect class="cls-5" x="216" y="111" width="80" height="47" rx="1.9" ry="1.9"/><rect class="cls-11" x="221" y="113" width="72" height="37"/><polygon class="cls-12" points="293 150 220.26 150 293 113.61 293 150"/><rect class="cls-5" x="242" y="161" width="29" height="3" rx="1.43" ry="1.43"/><rect class="cls-5" x="252" y="152" width="11" height="10"/><rect class="cls-13" x="155" y="165" width="225" height="13"/><path class="cls-14" d="M191.88,143.58h0s-3.93,3.65-3,7.25" transform="translate(-2 -3)"/><path class="cls-15" d="M189.89,146.37c-.09-.68-.55-1.33-1-1.16a1,1,0,0,1-.82,0s.08.86.53,1.1A1.31,1.31,0,0,0,189.89,146.37Z" transform="translate(-2 -3)"/><path class="cls-15" d="M189.84,146.38c.2.46.65.83,1,.61a.76.76,0,0,1,.58-.15s-.23-.59-.6-.67A1,1,0,0,0,189.84,146.38Z" transform="translate(-2 -3)"/><ellipse class="cls-16" cx="191.46" cy="141.81" rx="0.95" ry="1.37" transform="translate(-43.79 90.21) rotate(-24.76)"/><ellipse class="cls-16" cx="193.3" cy="142.17" rx="1.37" ry="0.95" transform="translate(-47.14 166.09) rotate(-42.78)"/><ellipse class="cls-16" cx="193.52" cy="144.03" rx="0.95" ry="1.37" transform="translate(-28.69 239.55) rotate(-60.76)"/><ellipse class="cls-16" cx="191.82" cy="144.82" rx="1.37" ry="0.95" transform="translate(10.44 301.78) rotate(-78.78)"/><ellipse class="cls-16" cx="190.54" cy="143.44" rx="1.37" ry="0.95" transform="translate(-17.55 20.4) rotate(-6.75)"/><ellipse class="cls-17" cx="191.67" cy="142.25" rx="0.61" ry="0.88" transform="translate(-43.96 90.34) rotate(-24.76)"/><ellipse class="cls-17" cx="192.85" cy="142.49" rx="0.88" ry="0.61" transform="translate(-47.49 165.68) rotate(-42.73)"/><ellipse class="cls-17" cx="192.99" cy="143.69" rx="0.61" ry="0.88" transform="translate(-28.66 238.88) rotate(-60.76)"/><ellipse class="cls-17" cx="191.89" cy="144.19" rx="0.88" ry="0.61" transform="translate(11.05 301.29) rotate(-78.76)"/><ellipse class="cls-17" cx="191.08" cy="143.31" rx="0.88" ry="0.61" transform="translate(-17.58 20.56) rotate(-6.78)"/><ellipse class="cls-18" cx="191.9" cy="142.77" rx="0.32" ry="0.46" transform="translate(-44.15 90.51) rotate(-24.76)"/><ellipse class="cls-18" cx="192.52" cy="142.89" rx="0.46" ry="0.32" transform="translate(-47.82 165.91) rotate(-42.81)"/><ellipse class="cls-18" cx="192.59" cy="143.51" rx="0.32" ry="0.46" transform="translate(-28.63 238.64) rotate(-60.81)"/><ellipse class="cls-18" cx="192.02" cy="143.78" rx="0.46" ry="0.32" transform="translate(11.43 300.93) rotate(-78.71)"/><ellipse class="cls-18" cx="191.6" cy="143.32" rx="0.46" ry="0.32" transform="translate(-17.51 20.5) rotate(-6.75)"/><circle class="cls-5" cx="192.13" cy="143.25" r="0.46" transform="translate(-44.32 90.58) rotate(-24.75)"/><path class="cls-14" d="M178,144h0s3.5,4.07,2.13,7.53" transform="translate(-2 -3)"/><path class="cls-15" d="M179.76,147.3c.09-.68.55-1.33,1-1.16a1,1,0,0,0,.82,0s-.07.86-.53,1.1A1.32,1.32,0,0,1,179.76,147.3Z" transform="translate(-2 -3)"/><path class="cls-15" d="M179.81,147.31c-.2.46-.65.83-1,.61a.76.76,0,0,0-.58-.15s.23-.59.6-.68A1,1,0,0,1,179.81,147.31Z" transform="translate(-2 -3)"/><ellipse class="cls-16" cx="178.58" cy="142.33" rx="1.37" ry="0.95" transform="translate(-37.59 218.58) rotate(-58.86)"/><ellipse class="cls-16" cx="176.71" cy="142.49" rx="0.95" ry="1.37" transform="translate(-52.16 147.17) rotate(-40.82)"/><ellipse class="cls-16" cx="176.28" cy="144.31" rx="1.37" ry="0.95" transform="translate(-44.19 76.74) rotate(-22.84)"/><ellipse class="cls-16" cx="177.89" cy="145.28" rx="0.95" ry="1.37" transform="translate(-13.58 12.46) rotate(-4.82)"/><ellipse class="cls-16" cx="179.3" cy="144.06" rx="0.95" ry="1.37" transform="translate(-3.8 282.85) rotate(-76.84)"/><ellipse class="cls-17" cx="178.32" cy="142.75" rx="0.88" ry="0.61" transform="translate(-38.09 218.52) rotate(-58.85)"/><ellipse class="cls-17" cx="177.12" cy="142.86" rx="0.61" ry="0.88" transform="translate(-52.29 147.7) rotate(-40.86)"/><ellipse class="cls-17" cx="176.85" cy="144.03" rx="0.88" ry="0.61" transform="translate(-44.04 76.94) rotate(-22.84)"/><ellipse class="cls-17" cx="177.88" cy="144.65" rx="0.61" ry="0.88" transform="matrix(1, -0.08, 0.08, 1, -13.52, 12.46)"/><ellipse class="cls-17" cx="178.79" cy="143.86" rx="0.61" ry="0.88" transform="translate(-3.93 282.3) rotate(-76.87)"/><ellipse class="cls-18" cx="178.03" cy="143.24" rx="0.46" ry="0.32" transform="translate(-38.7 218.37) rotate(-58.81)"/><ellipse class="cls-18" cx="177.4" cy="143.29" rx="0.32" ry="0.46" transform="matrix(0.76, -0.65, 0.65, 0.76, -52.51, 148.14)"/><ellipse class="cls-18" cx="177.26" cy="143.9" rx="0.46" ry="0.32" transform="translate(-43.87 76.79) rotate(-22.76)"/><ellipse class="cls-18" cx="177.8" cy="144.23" rx="0.32" ry="0.46" transform="translate(-13.56 12.55) rotate(-4.85)"/><ellipse class="cls-18" cx="178.27" cy="143.82" rx="0.32" ry="0.46" transform="translate(-4.31 281.72) rotate(-76.86)"/><circle class="cls-5" cx="177.75" cy="143.7" r="0.46" transform="translate(-39.13 218.6) rotate(-58.88)"/><path class="cls-19" d="M184.07,139.5h0s3,7.41-.61,11.63" transform="translate(-2 -3)"/><path class="cls-15" d="M185.36,145.37c.17-1.26,1-2.46,1.93-2.15a1.92,1.92,0,0,0,1.52,0s-.14,1.59-1,2A2.43,2.43,0,0,1,185.36,145.37Z" transform="translate(-2 -3)"/><path class="cls-15" d="M185.23,146.14c-.6.72-1.6,1.13-2,.57a1.42,1.42,0,0,0-1-.58s.71-.93,1.42-.88A1.8,1.8,0,0,1,185.23,146.14Z" transform="translate(-2 -3)"/><ellipse class="cls-18" cx="181.59" cy="135.48" rx="1.58" ry="2.27" transform="translate(-46.31 115.13) rotate(-32.33)"/><ellipse class="cls-18" cx="184.69" cy="135.68" rx="2.27" ry="1.58" transform="translate(-39.64 188.24) rotate(-50.33)"/><ellipse class="cls-18" cx="185.46" cy="138.69" rx="1.58" ry="2.27" transform="translate(-13.88 256.87) rotate(-68.34)"/><ellipse class="cls-18" cx="182.83" cy="140.35" rx="2.27" ry="1.58" transform="translate(29.12 310.87) rotate(-86.35)"/><ellipse class="cls-18" cx="180.44" cy="138.37" rx="2.27" ry="1.58" transform="translate(-30.63 45.95) rotate(-14.33)"/><ellipse class="cls-17" cx="182.02" cy="136.17" rx="1.01" ry="1.46" transform="matrix(0.84, -0.53, 0.53, 0.84, -46.61, 115.5)"/><ellipse class="cls-17" cx="184.02" cy="136.29" rx="1.46" ry="1.01" transform="translate(-40.35 187.97) rotate(-50.34)"/><ellipse class="cls-17" cx="184.51" cy="138.23" rx="1.01" ry="1.46" transform="translate(-14.06 255.69) rotate(-68.34)"/><ellipse class="cls-17" cx="182.82" cy="139.3" rx="1.46" ry="1.01" transform="matrix(0.06, -1, 1, 0.06, 30.1, 309.83)"/><ellipse class="cls-17" cx="181.28" cy="138.03" rx="1.46" ry="1.01" transform="translate(-30.53 46.18) rotate(-14.34)"/><ellipse class="cls-20" cx="182.53" cy="136.96" rx="0.53" ry="0.76" transform="translate(-46.95 115.81) rotate(-32.32)"/><ellipse class="cls-20" cx="183.57" cy="137.03" rx="0.76" ry="0.53" transform="translate(-41.09 187.88) rotate(-50.34)"/><ellipse class="cls-20" cx="183.82" cy="138.04" rx="0.53" ry="0.76" transform="translate(-14.24 255.05) rotate(-68.37)"/><ellipse class="cls-20" cx="182.94" cy="138.59" rx="0.76" ry="0.53" transform="translate(31.01 309.36) rotate(-86.36)"/><ellipse class="cls-20" cx="182.14" cy="137.93" rx="0.76" ry="0.53" transform="translate(-30.55 46.56) rotate(-14.38)"/><circle class="cls-5" cx="183" cy="137.71" r="0.76" transform="translate(-47.29 116.38) rotate(-32.37)"/><polygon class="cls-21" points="172.63 148 175.34 164 189.54 164 192.64 148 172.63 148"/><polygon class="cls-22" points="172.94 151 192.26 151 193.62 147 171.67 147 172.94 151"/><rect class="cls-7" x="330" y="179" width="38" height="82"/><polygon class="cls-23" points="309.84 129.1 252.54 165.02 304.86 165.82 314.48 138.75 309.84 129.1"/><path class="cls-24" d="M331.6,167h0c-.24,0-.43-.65-.41-.89s1-29.29-4.16-32.84a4,4,0,0,0-4.14-.16.48.48,0,0,1-.37-.88,4.84,4.84,0,0,1,5,.12c5.57,3.83,4.59,33.08,4.54,33.82C332,166.4,331.83,167,331.6,167Z" transform="translate(-2 -3)"/><circle class="cls-25" cx="314.37" cy="136.3" r="2.26" transform="translate(-27.51 176.75) rotate(-30.72)"/><polygon class="cls-26" points="323.25 130.07 315.28 137.94 310.64 128.29 321.91 127.28 323.25 130.07"/><rect class="cls-27" x="323" y="162" width="13" height="3" rx="0.78" ry="0.78"/><rect class="cls-13" x="420" y="121" width="174" height="87"/><path class="cls-28" d="M598,122.76" transform="translate(-2 -3)"/><rect class="cls-5" x="420" y="237" width="10" height="24"/><rect class="cls-5" x="584" y="237" width="10" height="24"/><rect class="cls-5" x="420" y="103" width="10" height="23"/><rect class="cls-5" x="584" y="103" width="10" height="23"/><path class="cls-5" d="M596,211.73c0,3.16-2.8,5.27-6.21,5.27H428.28c-3.41,0-6.28-2.11-6.28-5.27V190.5c0-3.16,2.86-6.5,6.28-6.5H589.79c3.41,0,6.21,3.34,6.21,6.5Z" transform="translate(-2 -3)"/><rect class="cls-13" x="420" y="202" width="174" height="36"/><path class="cls-29" d="M462.7,184.6s15-7.58,14.12-24.32c0,0,48.34,6.13,68.4-5.72,0,0-1.76,23.68,4.85,30.22S468.88,193,462.7,184.6Z" transform="translate(-2 -3)"/><rect class="cls-7" x="506" y="121" width="88" height="123"/><rect class="cls-30" x="481.5" y="91.5" width="53" height="6" rx="2.82" ry="2.82"/><circle class="cls-5" cx="495.05" cy="95.2" r="2.78"/><path class="cls-31" d="M484.44,110.36a.44.44,0,0,1,0-.88,13.35,13.35,0,0,0,12.23-11.33.45.45,0,0,1,.48-.39.44.44,0,0,1,.39.49,14.25,14.25,0,0,1-13,12.11Z" transform="translate(-2 -3)"/><circle class="cls-32" cx="474.11" cy="107.57" r="2.26"/><polygon class="cls-27" points="484.41 105.2 473.54 102.5 474.49 113.17 484.69 108.28 484.41 105.2"/><circle class="cls-5" cx="521.4" cy="95.2" r="2.78"/><path class="cls-31" d="M536,110.36a.44.44,0,0,0,0-.88,13.35,13.35,0,0,1-12.23-11.33.45.45,0,0,0-.48-.39.44.44,0,0,0-.39.49,14.25,14.25,0,0,0,13,12.11Z" transform="translate(-2 -3)"/><circle class="cls-32" cx="542.35" cy="107.57" r="2.26"/><polygon class="cls-27" points="532.04 105.2 542.91 102.5 541.97 113.17 531.77 108.28 532.04 105.2"/><polygon class="cls-33" points="183.19 164 189.49 164 192.89 146.61 183.41 146.14 183.19 164"/></svg>