<svg id="Layer_1" data-name="Layer 1" xmlns="http://www.w3.org/2000/svg" xmlns:xlink="http://www.w3.org/1999/xlink" viewBox="0 0 621 301"><defs><style>.cls-1{fill:url(#New_Gradient_Swatch_1);}.cls-2{fill:#00a99d;}.cls-3{fill:#666;}.cls-4{fill:#0cc;}.cls-5,.cls-6{fill:#fff;}.cls-15,.cls-17,.cls-18,.cls-19,.cls-5{opacity:0.2;}.cls-7{fill:#fbb03b;}.cls-8{fill:url(#radial-gradient);}.cls-9{fill:url(#radial-gradient-2);}.cls-10{fill:url(#radial-gradient-3);}.cls-11{fill:url(#radial-gradient-4);}.cls-12{fill:url(#linear-gradient);}.cls-13{fill:#111;}.cls-14{fill:url(#linear-gradient-2);}.cls-15{fill:url(#New_Gradient_Swatch_1-2);}.cls-16{fill:#fc3;}.cls-17{fill:url(#New_Gradient_Swatch_1-3);}.cls-18{fill:url(#New_Gradient_Swatch_1-4);}.cls-19{fill:url(#New_Gradient_Swatch_1-5);}.cls-20{fill:#f7931e;}</style><linearGradient id="New_Gradient_Swatch_1" x1="301" y1="219.88" x2="301" y2="260.06" gradientUnits="userSpaceOnUse"><stop offset="0.36" stop-color="#ccc"/><stop offset="0.39" stop-color="#ccc" stop-opacity="0.95"/><stop offset="0.69" stop-color="#ccc" stop-opacity="0.44"/><stop offset="0.9" stop-color="#ccc" stop-opacity="0.12"/><stop offset="1" stop-color="#ccc" stop-opacity="0"/></linearGradient><radialGradient id="radial-gradient" cx="86.38" cy="130.33" r="7.97" gradientUnits="userSpaceOnUse"><stop offset="0.3" stop-color="#ff9f00"/><stop offset="1" stop-color="#f27500"/></radialGradient><radialGradient id="radial-gradient-2" cx="103.38" cy="148.14" r="6.12" xlink:href="#radial-gradient"/><radialGradient id="radial-gradient-3" cx="103.38" cy="148.12" r="6.16" xlink:href="#radial-gradient"/><radialGradient id="radial-gradient-4" cx="103.05" cy="148.08" r="7.04" xlink:href="#radial-gradient"/><linearGradient id="linear-gradient" x1="89.91" y1="139.53" x2="89.91" y2="143" gradientUnits="userSpaceOnUse"><stop offset="0.18" stop-color="#fb995e"/><stop offset="0.63" stop-color="#f9d7b5"/></linearGradient><linearGradient id="linear-gradient-2" x1="106.92" y1="158.09" x2="106.92" y2="150.01" gradientUnits="userSpaceOnUse"><stop offset="0" stop-color="#fbcc97"/><stop offset="0.96" stop-color="#f9d7b5"/></linearGradient><linearGradient id="New_Gradient_Swatch_1-2" x1="91.19" y1="236.58" x2="92.04" y2="256.87" xlink:href="#New_Gradient_Swatch_1"/><linearGradient id="New_Gradient_Swatch_1-3" x1="26.19" y1="236.58" x2="27.04" y2="256.87" xlink:href="#New_Gradient_Swatch_1"/><linearGradient id="New_Gradient_Swatch_1-4" x1="570.68" y1="237.35" x2="571.55" y2="258.28" xlink:href="#New_Gradient_Swatch_1"/><linearGradient id="New_Gradient_Swatch_1-5" x1="482.19" y1="234.96" x2="483.04" y2="255.58" xlink:href="#New_Gradient_Swatch_1"/></defs><title>living-room</title><path class="cls-1" d="M444.9,251H438v-4.36c0-3.29-1-6.08-5-7V225H423v14H180V225h-9v16c-1,1.36-3,3.36-3,5.6V251H155.39c-4.09,0-6.39,4.52-6.39,8.61v27.72c0,4.09,2.3,5.67,6.39,5.67h17.71a6.51,6.51,0,0,0,.91,0v17.45c0,4.09,3.82,7.53,7.91,7.53H417.54a7.57,7.57,0,0,0,7.46-7.53V292.87a12.41,12.41,0,0,0,2.19.13H444.9c4.09,0,8.1-1.58,8.1-5.67V259.61C453,255.52,449,251,444.9,251Z" transform="translate(-17 -17)"/><rect class="cls-2" x="162" y="121" width="250" height="65" rx="7.4" ry="7.4"/><rect class="cls-3" x="154" y="196" width="9" height="18"/><rect class="cls-3" x="406" y="196" width="10" height="18"/><rect class="cls-4" x="149" y="173" width="270" height="26" rx="7.4" ry="7.4"/><path class="cls-4" d="M184,195.78c0,4.09-2.53,8.22-6.62,8.22H159.67c-4.09,0-8.67-4.13-8.67-8.22V168.06c0-4.09,4.58-6.06,8.67-6.06h17.71c4.09,0,6.62,2,6.62,6.06Z" transform="translate(-17 -17)"/><path class="cls-4" d="M455,195.78c0,4.09-1.72,8.22-5.81,8.22H431.48c-4.09,0-9.48-4.13-9.48-8.22V168.06c0-4.09,5.39-6.06,9.48-6.06h17.71c4.09,0,5.81,2,5.81,6.06Z" transform="translate(-17 -17)"/><path class="cls-5" d="M302,216H423v15h10V214.35a6.57,6.57,0,0,0,3-5.6V204h13.19c4.09,0,5.81-4.13,5.81-8.22V168.06c0-4.09-1.72-6.06-5.81-6.06H431.48c-.46,0-.48.33-1.48.37V144.92c0-4.09-3.24-6.92-7.33-6.92H302" transform="translate(-17 -17)"/><rect class="cls-4" x="139" y="51" width="307" height="49"/><rect class="cls-6" x="148" y="62" width="289" height="29"/><path class="cls-2" d="M444.67,89.85v2.38l-.68-.67.16-.21-.55-.86V90l-1.1-1.32V87.51l-2.68-.23h-.65V88.6h-.86V91c-1.12-1.19-1.82-1.2-1.82-1.2h-.34c-1.75.31-2.37,2.59-2.37,2.59H433V86.94l-1.93-.3V84.23l-.55-.54h-.23v.93c-.18.25-1.59.48-1.59.48-.49.11-.39.71-.39.71V95.9h0v5.18h-1.64V96.38l-.63-.52V91.79h-.87v-.27H424V89.76H419v1.16h-1.66v4.94l-1.58.78V94.22H416V91.41h-.87v-.69h-1.5v-1h-1.85l-.24-2.52-.24,2.52h0v2.66h-2.37v.86H408v3h-1.42v3h-2.85V96.63h-1.49v-.48H399v.48h-1.66v.65h-.89v.44h.36v2.75h-2v-.68h-2v.32h-2.2v-.32H389.2v-.32H390v-.63h-.83v-.12h-1.31V98.3H385.4v-.17h-1.48v-.41h-1.19v.41h-2v.7h-2.38V97H377v-.82h-.45V95.9c0-.83-1.28-1.54-3.09-1.81v-.42H373V92.54h-.39v-.68h-.45l-.44-1.14-.44,1.14h-.45v.68h-.39v1.14h-.39v.42c-1.8.27-3.09,1-3.09,1.81v.32h-.45V97H365.2V99.7h-1.89V97.87l-1.78-1.65-1.78,1.65V99.5a1.76,1.76,0,0,1-.35.23c-.48.2-.44.19-.55.46s-.57.26-1.17.41l-.15,0-1.1-.18v-3h-.61l-.67-3.17-.67,3.17h-.67v1.36H352.5v-.11c0-.31-.5-.56-1.19-.64V96.63h-1V98.1c-.63.09-1.07.34-1.07.62v.47l-1.84-.11V97.14h-3.27V95.2h-3.68v2.28h-3.15V94.41h-.24v-.34H334.8v-.35h-2.26v.47H330v.36h-1V95h-.59v.12H329v.19h-.59v.12H329v.19h-.59v.12H329V96h-.59v.12H329v.19h-.59v.12H329v.19h-.59v.12H329v.19h-.59V97H329v.19h-.59v.12H329v.19h-.59v.12H329v.19h-.59V98H329v.19h-.59v.1H326v0h.35v-.12H326V97.9h.35v-.12H326v-.19h.35v-.12H326v-.19h.35v-.12H326V97h.35v-.12H326v-.19h.35v-.12H326v-.19h.35v-.12H326V96h.35v-.12H326v-.19h.35V95.6H326V95.4h.35v-.12H326v-.19h.35V95H326v-.19h.35v-.12H326v-.19h.35v-.12H326v-.19h.35V94H326v-.19h.35v-.12H326v-.46h-1.79v-.21H322.1l-1.26.51v.35H319.3v3.22h-2.67l-2.41-.88-.15.06V93.63h-2v-.36h-.36V92.9h-.89v-.27h-2.08v.27h-.65v.17h-1.19v.44h-.65v.12h.65v.16h-.65v.12h.65v.16h-.65v.12h.65v.16h-.65v.12h.65v.16h-.65v.12h.65v.16h-.65V95h.65v.16h-.65v.12h.65v.19H303V90.44l-1.44,0v-.71c.2-1.21-3-1.75-3-1.75v-.32h-.2v-.88H298v-.56h-.34v-.87h-.44v.87h-.34v.56h-.34v.88h-.21V88s-3.18.53-3,1.74v.71l-1.44,0v3.28h-1V91.51h-.29l-.29-.77-.2.71h-.76l-.28-.71-.27.57h0V90h0v1.3h0l-.26-.57-.28.71h-.76l-.2-.71-.29.77h-.08v1.81h-.48V91.61h-.09L286,90.9l-.2.71H285l-.28-.71-.27.57h-.11l-.26-.57-.28.71h-.76l-.2-.71-.27.72h-.05V93.4H282v-.19h-.09l-.24-.66-.25.66h-.1v.19h-1V90.28l.25-.18V88h-.28v-.18l.24-.05-.37-.16v-.18l.22-.07a3.1,3.1,0,0,1-1.57-1.14V86.1h-.2v-.63l.23-.07a4,4,0,0,1-1.72-2.2h.14v-.1h-.17l-.11-.73-.11.73h-.17v.1h.14a4,4,0,0,1-1.72,2.2l.23.07v.63h-.2v.12a3.1,3.1,0,0,1-1.57,1.14l.22.07v.18l-.37.16.23.05V88h-.28v2.12l.25.18v2.18l-.4-.06-1.64.33h-.5V93H268.8l-.24.2h-1l-.19-.31-.47.54-.13.18h-.25v-.3h-.87v.51h-.79v-.15a2.51,2.51,0,0,1-.27-.46s-.2.45-.27.46v.15H263v-.28a2.62,2.62,0,0,1-.27-.46s-.2.45-.27.46v.28l-1.12,0v-.27h0l-.57-.46v-.17h-.1v.17l-.57.46h0v.23l-.83,0v-.24A2.63,2.63,0,0,1,259,93s-.2.45-.27.46v.23l-.94,0h0V92.63h.33v0h-.23v-.47h-.29v.2h0c-.22-.06-.17-.48-.16-1l-.13.05a.23.23,0,0,1-.09,0c-.17-.11-.08-.41-.08-.5h-.24v-.33h0l-.16-.29-.17.29h0v.33h-.24c0,.1.11.46-.15.53h0l-.12,0c0,.5.06.92-.16,1h-.15v-.22h-.21v-.64h-.1v-.24h.12l-.34-.43,0-.16H255l0,.16-.34.43h.12v.24h-.15v.62h-.39l-.31-.4h0l-.08-.23-.08.23h-.45v-.25h0l-.11-.2-.11.2h0v.15h-.13v0h-.1V91.3h.12l-.34-.43,0-.16h-.06l0,.16-.34.43h.12v.24h-.15v.14h-.41v-.37h-.1v-.24h.11l-.34-.43,0-.16h-.06l0,.16-.34.43h.11v.24h-.15v.14h-.3v.11h-.52l-.06-.15-.06.15h-.14v.12l-.24.34h-.42V91.4h-.1v-.24h.11l-.34-.43,0-.16h-.06l0,.16-.34.43h.12v.24h-.15V92h0v.11h-.13l-.31-.4h0l-.08-.21-.08.21h-.59V91.6h-.32v-.11h.12l-.34-.43,0-.16h-.06l0,.16-.34.43h.12v.24h-.15v0h-.56V91.5h-.1v-.24h.12l-.34-.43,0-.16h-.06l0,.16-.34.43h.12v.24h-.15v.26H244l-.08-.22-.08.22-.28.4h-.31v-.5h-.1v-.32h.11l-.34-.43,0-.16h-.06l0,.16-.34.43h.12v.32h-.15v.64h0v1.3h-1.57v-.37H241v-.06h-.16V93h-1v.16h-.12v.06h.12v.41H239v-.23h-.15v-.13h.09V93h-.19V92.7h-.14v-.22h0V91.36h-.36v-.63h-.08V90.3H238l-.09-.16v.54l-.31-.15v-1.4h-.27v-.18h0v-.18l-.06.09H237v-.27h-.19l-.12-.52h.05V88h-.07l-.27-1.17L236.11,88H236v.08h.05l-.12.52h-.19v.27h-.24l-.06-.09v.18h0v.18h-.27V90.2H235v.39l-.26.11v-.38h-.27v.42h-.18v.63h-.14v.31H234v-.82h-.06v.82h0l-.33-.23v-.25h-.06v.25l-.31.24h.13v.23h-.16v.56h-.41v-.4h0v-.15h-.1v.15h-.39l-.17-.06h-.14v-.64h0v-.14h0v.14h-.16l-.23-.25v-.23h0v.23l-.23.25h-.16v-.14h0v.14h0V92h-.3v-.18h-.1v-.24h.11l-.34-.43,0-.16h-.06l0,.16-.34.43H230v.24h-.15V92h-.49l-.24.37H229v-.49h-.1v-.24H229l-.34-.43,0-.16h-.06l0,.16-.34.43h.11v.24h-.15v.64h0v.84H226.7V88.25h0v-.83h-.21v-.31h.09v-.21h0l-.53-.44v-.29h0c.06,0,.11,0,.11,0s0,0-.11,0h0V86h0v.08h0c-.06,0-.11,0-.11,0s0,0,.11,0h0v.29l-.53.44h0v.21h.12v.31h-.24v.83h-.87v-.3h-.54v-.26h-.21v-.31h.09v-.21h0l-.53-.44v-.29h0c.06,0,.11,0,.11,0s-.05,0-.11,0h0v-.08h0v.08h0c-.06,0-.11,0-.11,0s0,0,.11,0h0v.29l-.44.37-.46-.38v-2a1.68,1.68,0,0,0,.6.16.87.87,0,0,1,.1-.4,1.76,1.76,0,0,0-.7-.37V84c.05,0,.09,0,.09-.06s-.07-.07-.15-.07-.15,0-.15.07,0,.05.09.06V86.7l-.32.27v-.11H222v-.21h0l-.53-.44v-.29h0c.06,0,.11,0,.11,0s0,0-.11,0h0v-.08h0v.08h0c-.06,0-.11,0-.11,0s0,0,.11,0h0v.29l-.53.44h0v.21H221v.31h-.24v.77h-.85v.3h-.8v-.86h-.21v-.31H219v-.21h0l-.53-.44v-.29h0c.06,0,.11,0,.11,0s0,0-.11,0h0V86h0V86h0c-.06,0-.11,0-.11,0s.05,0,.11,0h0v.29l-.53.44h0v.21H218v.31h-.24v6.52h0v2H215.8V95h-.92V92.77l.13-.3v0h0v-.79H215v0H215V91.1l0,0v0l-.42-.55v-.15h.15v0h-.15v-.11h-.13v.11h-.14v0h.14v.15l-.09.11-.05-.12v0h.14v0h-.14v-.13h-.11v.13h-.14v0h.12v.16l-.1.18h-.23l-.53-.82v-.45h-.1V90l-.58.85h-.16l-.25-.35v-.19h.15v0h-.15v0h-.1v0H212v0h.14v.06H212v0h-.13v0h-.13v.06h.13v.08l-.34.6v.07l.05,0v.44h-.12v0l.06.08h-6.78v-.14h-.23v0h0v0h-.26v0h-.16v0h.07v0h-.08v-.05H204v.05h-.09v0H204v0h-.16v0h-.27v0h0v0h-.23v.14h-6.78l.07-.08v0h-.12v-.44l.05,0v-.07l-.34-.6v-.1h.14v0h-.14v0h-.1v0H196v-.06h-.1v.06h-.14v0h.14v.17l-.25.35h-.16l-.58-.85v-.45h-.1V90l-.53.82H194l-.1-.18v-.16l0,0v0h.14v0h-.14v-.06h-.1v.06h0v0h-.13v-.1h-.13v.1h-.14v0h.14v.15l-.42.55v0l0,0v.49h-.07v0h.07v.79h0v0l.13.3V95h-.92v.9h-1.43v-.84h-1.13v-.82h-2.87V95h-1.54v.13H185v-.27h-.31v-.41h-.29v-.25h-.7V94c0-.36-1.68-.69-2.56-.53h-1.79s0-.59,0-.89c0,0-.07-.56.65-.56l-1.61-.4h-1.68l-6.19.18-.62.27v2.15h-.21v.28h-.24v.31h-.24V95l.09,2.32v5.58H448.92V89.85Zm-250.86.57,0,.05v0l-.05.12-.09-.11v-.15h0v0h.15Zm2.28.09-.12.05v-.17h.12Zm0-.16H196v0h.12Zm14.8,5.57H197.22v-.27a15.25,15.25,0,0,1,2.11-.28c1.19-.09,2.64-.13,4.11-.13,1.72,0,3.48.06,4.92.16.59,0,1.12.09,1.58.15h0l.28,0,.67.12ZM198,95.44l-.76.13v-.46Zm-.64-.34H198v.28Zm1.39.25-.67.08V95.1h.08Zm-.44-.25h.45v.2Zm1.17.19h-.15l-.46,0V95.1H199Zm-.36-.19h.4v.15Zm8.68.16-.34-.16h.8Zm.61-.16h0v.23l-.59,0Zm-.69.19-.84,0,.35-.14h.11Zm-.89-.08-.25-.1h.51Zm-.05,0c-1.06,0-2.2-.07-3.33-.07-.75,0-1.49,0-2.19,0l.24-.1h4.95Zm-5.57-.07L201,95.1h.32Zm0,0-.83,0,.29-.14h.28Zm-.92,0-.35-.12h.61Zm-.08,0-.56,0V95.1h.14Zm8.36,0V95.1h.5Zm.64-.19h0v.3l-.64-.05Zm.78,0v.37l-.68-.07Zm-.66.24V95.1h.54Zm1.63.29-.62-.11-.22,0,.84-.39h0Zm-.87-.18V95.1h.74Zm1.66-.48H196.43V92.8l.11-.19v-.41h15v.41l.11.19Zm.46-4.51v.1l-.12-.05v-.1h.12Zm6-3.35h.44v.25h-.44Zm.06,1s0,0-.08,0-.08,0-.08,0v-.23s0,0,.08,0,.08,0,.08,0Zm.23,0s0,0-.08,0-.08,0-.08,0v-.23s0,0,.08,0,.08,0,.08,0Zm.23,0s0,0-.08,0-.08,0-.08,0v-.23s0,0,.08,0,.08,0,.08,0Zm2.48-1.2h.44v.25h-.44Zm.06,1s0,0-.08,0-.08,0-.08,0v-.23s0,0,.08,0,.08,0,.08,0Zm.23,0s0,0-.08,0-.08,0-.08,0v-.23s0,0,.08,0,.08,0,.08,0Zm.1-.23v.26l0,0v-.23s0,0,.07,0,.07,0,.08,0Zm1.23,0h-.08v-.26h.08Zm.66,0H223V87.4h.44Zm2.33-.51h.44v.25h-.44Zm.07,1s0,0-.08,0-.08,0-.08,0v-.23s0,0,.08,0,.08,0,.08,0Zm.23,0s0,0-.08,0-.08,0-.08,0v-.23s0,0,.08,0,.08,0,.08,0Zm.23,0s0,0-.08,0-.08,0-.08,0v-.23s0,0,.08,0,.08,0,.08,0ZM236.49,90s-.05,0-.11,0-.11,0-.11,0v-.61s.05,0,.11,0,.11,0,.11,0Zm1.39.73h0Zm4.91.85s0,0,.08,0,.09,0,.09,0v.11s0,0-.09,0-.08,0-.08,0Zm.19.65s-.05,0-.11,0-.12,0-.12,0V92s.05,0,.12,0,.11,0,.11,0Zm.62.14h0Zm1.65-.83s0,0-.09,0-.09,0-.09,0v-.12s0,0,.09,0,.09,0,.09,0Zm1.37.22h-.17v-.1s0,0,.09,0,.09,0,.09,0Zm4.62-.52s0,0,.09,0,.08,0,.08,0v.12s0,0-.08,0-.09,0-.09,0Zm.19.44h-.23v0s.05,0,.11,0,.12,0,.12,0Zm1.2-.1s0,0-.09,0-.08,0-.08,0v-.12s0,0,.08,0,.09,0,.09,0Zm2.32-.21s0,0,.09,0,.09,0,.09,0v.12s0,0-.09,0-.09,0-.09,0Zm.19.65s-.05,0-.11,0-.12,0-.12,0v-.23s.05,0,.12,0,.11,0,.11,0Z" transform="translate(-17 -17)"/><rect class="cls-5" x="292" y="51" width="154" height="49"/><rect class="cls-7" x="65" y="153" width="53" height="61"/><rect class="cls-6" x="71" y="160" width="40" height="47"/><rect class="cls-2" x="75" y="121" width="30" height="30"/><rect class="cls-6" x="80" y="127" width="20" height="20"/><path class="cls-2" d="M107.43,224.31h-3.32c-1.15,0-6.48-2.27-6.48-5.67s8.58-5,8.58-8.49-.27-14.56-3.41-16.47c.9-1,4.64-1.08,4.64-1.08s3.73.1,4.64,1.08c-3.15,1.91-3.41,12.94-3.41,16.47s8.57,5.08,8.57,8.49-5.33,5.67-6.48,5.67Z" transform="translate(-17 -17)"/><rect class="cls-5" x="91" y="153" width="27" height="61"/><polygon class="cls-8" points="86.47 133.82 86.47 133.82 86.47 133.83 86.47 133.82"/><path class="cls-9" d="M103.48,150.8v0l0,0Z" transform="translate(-17 -17)"/><path class="cls-10" d="M104.68,149.44l-.08-.2Z" transform="translate(-17 -17)"/><path class="cls-11" d="M104.69,149.46v0Z" transform="translate(-17 -17)"/><path class="cls-7" d="M110.09,162.63l0-.74-1,1.41,0-.84-1.23,1.46c0-.07,3.77-11.34,2.2-14.5a2.44,2.44,0,0,0-1.89-1.46h-.05l-.05,0a1.87,1.87,0,0,1-.41-.26,1.81,1.81,0,0,0-2.37-.06c-1.47.82-1,7.74.67,16.53l-1.23-1.82.21,1-1.32-1.65-.05,1c-5.29-9-2.74-16.7,2-17.05,2.92-.22,4.92.35,5.84,1.71C116.68,155.09,110.16,162.32,110.09,162.63Z" transform="translate(-17 -17)"/><polygon class="cls-12" points="92.37 139.63 89.92 144.28 87.46 139.63 92.37 139.63"/><path d="M106.8,147.33h0Z" transform="translate(-17 -17)"/><path d="M109,148.05h0l0,0Z" transform="translate(-17 -17)"/><path class="cls-13" d="M106.76,147.33" transform="translate(-17 -17)"/><path class="cls-14" d="M107.32,158.41l1.66-1a3.19,3.19,0,0,0,1.6-2.54c.5.15,1-1.3,1.05-1.77s-.07-1.15-.68-1c0-.1,0-.19,0-.29s0,0,0,0a11.22,11.22,0,0,0,.13-1.94,3.71,3.71,0,0,0-1.86-2.74h0a7.25,7.25,0,0,0-2.44-.63,3.69,3.69,0,0,0-2.24.63,2.89,2.89,0,0,1-.34.31,1.92,1.92,0,0,0-1.11.73c-.49.82-.36,3-.24,3.94-.61-.13-.7.57-.68,1s.55,1.91,1.05,1.77a3.18,3.18,0,0,0,1.6,2.54l1.69,1Z" transform="translate(-17 -17)"/><path class="cls-7" d="M111.33,150.16a5,5,0,0,0-.61-1.64,4.77,4.77,0,0,0-1.16-1.36l0,0-.05,0h0a9,9,0,0,0-1.23-.58,5,5,0,0,0-1.42-.3h0a5.18,5.18,0,0,0-1.31.2,2.93,2.93,0,0,0-1.23.72,1.93,1.93,0,0,0-.14.16l-.09.13-.07.1,0,0-.16.08a2.55,2.55,0,0,0-.31.19,2.15,2.15,0,0,0-.53.53,2.11,2.11,0,0,0-.3.68,5.39,5.39,0,0,0-.15,1.26,6,6,0,0,0,0,1.21,13.3,13.3,0,0,0,1,2.36c0-.8-.53-1.58-.46-2.36,0-.19,0-.38.06-.57.52-.43,1.76-1.69,1.83-1.77s-.49,1-.49,1c.38-.12.94-1.22.94-1.22l-.66,1.67c.21-.08.48-.29,1.27-1.35l.17-.24-.1,2.07c.22,0,.42-1.12.85-1.62l.21-.35.06,1.94c.11.07.23-.77.47-1.32l.28-1.31.35,2.21a6.76,6.76,0,0,0,.9-2.48,4.76,4.76,0,0,1,1.48,2.2,4.26,4.26,0,0,1,.18.73c0,.24,0,.51.06.78l.05,1.62h0l0,.37c0-.12.06-.23.09-.35h0v0c.12-.53.23-1.06.31-1.61a7.11,7.11,0,0,0,.07-.84A4.77,4.77,0,0,0,111.33,150.16Zm-4.56-2.82h0" transform="translate(-17 -17)"/><path class="cls-6" d="M107.48,146.49l-.36,0a3.68,3.68,0,0,0-.52,0c-5.56.62-3.92,5.61-3.92,5.61a4.9,4.9,0,0,1,4.67-5.07h0a4.91,4.91,0,0,1,4,5.11S113,147.11,107.48,146.49Z" transform="translate(-17 -17)"/><rect class="cls-5" x="90" y="121" width="15" height="30"/><polygon class="cls-15" points="92.18 214 65 214 65 274 92.18 274 118 274 118 214 92.18 214"/><rect class="cls-16" x="1" y="2" width="51" height="212"/><rect class="cls-2" x="5" y="8" width="43" height="183"/><path class="cls-16" d="M65,121.5a1.5,1.5,0,0,1-1.5,1.5h0a1.5,1.5,0,0,1-1.5-1.5v-13a1.5,1.5,0,0,1,1.5-1.5h0a1.5,1.5,0,0,1,1.5,1.5Z" transform="translate(-17 -17)"/><rect class="cls-2" x="5" y="197" width="43" height="11"/><rect class="cls-16" x="18" y="195" width="18" height="5" rx="2.41" ry="2.41"/><rect class="cls-5" x="26" y="2" width="26" height="212"/><polygon class="cls-17" points="27.22 214 0 214 0 274 27.22 274 53 274 53 214 27.22 214"/><rect class="cls-16" x="521" y="1" width="100" height="212"/><rect class="cls-2" x="525" y="7" width="45" height="200"/><rect class="cls-2" x="571" y="7" width="45" height="200"/><path class="cls-16" d="M584,129.5a1.5,1.5,0,0,1-1.5,1.5h0a1.5,1.5,0,0,1-1.5-1.5v-13a1.5,1.5,0,0,1,1.5-1.5h0a1.5,1.5,0,0,1,1.5,1.5Z" transform="translate(-17 -17)"/><path class="cls-16" d="M594,129.5a1.5,1.5,0,0,1-1.5,1.5h0a1.5,1.5,0,0,1-1.5-1.5v-13a1.5,1.5,0,0,1,1.5-1.5h0a1.5,1.5,0,0,1,1.5,1.5Z" transform="translate(-17 -17)"/><rect class="cls-5" x="570" width="51" height="212"/><polygon class="cls-18" points="572.44 215 521 215 521 275 572.44 275 621 275 621 215 572.44 215"/><polygon class="cls-19" points="482.8 212 456 212 456 273 482.8 273 509 273 509 212 482.8 212"/><rect class="cls-7" x="456" y="153" width="53" height="61"/><rect class="cls-6" x="462" y="160" width="40" height="45"/><rect class="cls-3" x="481.97" y="177.46" width="5.13" height="43.82" transform="translate(-43.03 64.69) rotate(-9.39)"/><rect class="cls-16" x="474" y="172" width="11" height="32"/><rect class="cls-20" x="488" y="172" width="5" height="32"/><rect class="cls-16" x="496" y="172" width="5" height="32"/><rect class="cls-5" x="481" y="153" width="28" height="61"/><path class="cls-2" d="M505.92,149.29H490.17a12.23,12.23,0,0,0,0,19.68h15.75a12.23,12.23,0,0,0,0-19.68Z" transform="translate(-17 -17)"/><polygon class="cls-16" points="469.25 124.54 474.54 124.54 476.89 104.28 474.31 104.28 469.25 124.54"/><polygon class="cls-16" points="480.52 104.28 477.95 104.28 475.6 124.54 480.52 124.54 480.52 104.28"/><polygon class="cls-16" points="493.91 124.54 499.45 124.54 491.38 104.28 488.85 104.28 493.91 124.54"/><polygon class="cls-16" points="484.14 104.28 481.57 104.28 481.57 124.54 486.49 124.54 484.14 104.28"/><polygon class="cls-16" points="487.78 104.28 485.2 104.28 487.55 124.54 492.84 124.54 487.78 104.28"/><polygon class="cls-16" points="473.24 104.28 470.71 104.28 462.65 124.54 468.18 124.54 473.24 104.28"/><rect class="cls-4" x="477.93" y="125.94" width="6.23" height="4.97"/><path class="cls-5" d="M498,169h7.87a12.23,12.23,0,0,0,0-19.68H498" transform="translate(-17 -17)"/><polyline class="cls-5" points="481.05 125.94 484.16 125.94 484.16 130.9 481.05 130.9"/></svg>